# xmcd
#
# Track frame offsets:
#	187
#	14122
#	24450
#	36090
#	50230
#	62147
#	76262
#	87450
#	97990
#	107437
#
# Disc length: 1573 seconds
#
# Revision: 3
# Processed by: cddbd v1.5.1PL0 Copyright (c) Steve Scherf et al.
# Submitted via: dBpowerAMP V4.0
#
DISCID=7c06230a
DTITLE=Various Artist - CountryGold,Volume9;MMusic31-029
DYEAR=1900
DGENRE=country
TTITLE0=IDon'tClaimToBeAnAngel(Wright,Anglin;KittyWells) - KittyWells
TTITLE1=PrideWinsAgain(WillieNelson) - WillieNelson
TTITLE2=OnceADay(BAnderson;GeorgeJones) - GeorgeJones
TTITLE3=MyElusiveDreams(CurlyPutnam,BillySherill;RogerMiller) - Roger Miller
TTITLE4=You'reTheOnlyGoodThingThat'sEveryHappenedToMe(JackToombs;ErnestTubb&CharlieRich) - ErnestTubb&CharlieRich
TTITLE5=Don'tBeAngry(WadeJackson;StonewallJackson) - StonewallJackson
TTITLE6=GoAway(WillieNelson) - WillieNelson
TTITLE7=WeddingRingAgo,A(King,Franks;KittyWells) - KittyWells
TTITLE8=WalkingThe(FloorErnestTubb,MerleHaggard,CharlieDaniels) - ErnestTubb,MerleHaggard,CharlieDaniels
TTITLE9=KansasCityStar(RogerMiller) - Roger Miller
EXTD=more info\nMillenniumMusicProjectFormat, syntax as follows:\nTitle{Subtitle}[info](Lyricist;Composer;Date,Artist,Location)[info]\ncorrections to: windking3@yahoo.com
EXTT0=
EXTT1=
EXTT2=
EXTT3=
EXTT4=
EXTT5=
EXTT6=
EXTT7=
EXTT8=
EXTT9=
PLAYORDER=
